<svg xmlns="http://www.w3.org/2000/svg" version="1.1" width="582" height="450" viewBox="0 0 582 450"><path fill="#fff" d="M557 88h-203c10 24 16 51 16 79h21c9 0 16 7 16 16v77c0 9-7 16-16 16h-52c-16 25-38 47-63 63v59c0 9-7 16-16 16h-69c-9 0-16-7-16-16v-28c-3 0-5 0-8 0 -10 0-20-1-29-2v57c0 14 11 25 25 25h394c14 0 25-11 25-25V113C582 99 571 88 557 88zM407 398c0 9-7 16-16 16h-69c-9 0-16-7-16-16v-77c0-9 7-16 16-16h69c9 0 16 7 16 16V398zM545 398c0 9-7 16-16 16h-70c-9 0-16-7-16-16v-77c0-9 7-16 16-16h70c9 0 16 7 16 16V398zM545 260c0 9-7 16-16 16h-70c-9 0-16-7-16-16v-77c0-9 7-16 16-16h70c9 0 16 7 16 16V260zM167 0C75 0 0 75 0 167s75 167 167 167 167-75 167-167S259 0 167 0zM167 288c-67 0-121-54-121-121 0-67 54-121 121-121 67 0 121 54 121 121C288 234 234 288 167 288zM252 193c-5-2-50-25-70-35 0-22 0-73 0-78 0-9-7-16-16-16 -9 0-16 7-16 16 0 6 0 81 0 88 0 0 0 0 0 0 0 6 3 11 9 14 6 3 73 37 78 39 8 4 17 1 21-7C263 206 260 197 252 193z"/></svg>
